<svg xmlns="http://www.w3.org/2000/svg" width="24.667" height="23.639" viewBox="0 0 24.667 23.639">
  <path id="star" d="M5.522,24.131a1.313,1.313,0,0,1-1.278-1.6l1.587-6.99L.449,10.818a1.312,1.312,0,0,1,.743-2.294l7.121-.646,2.815-6.588a1.311,1.311,0,0,1,2.411,0l2.815,6.589,7.12.646a1.312,1.312,0,0,1,.745,2.294l-5.382,4.719,1.587,6.99a1.311,1.311,0,0,1-1.951,1.416l-6.14-3.669-6.14,3.671a1.314,1.314,0,0,1-.672.186Zm6.812-5.438a1.314,1.314,0,0,1,.672.186L18.8,22.345l-1.5-6.6a1.311,1.311,0,0,1,.415-1.278L22.8,10.013,16.077,9.4a1.31,1.31,0,0,1-1.089-.795L12.334,2.391,9.677,8.609A1.306,1.306,0,0,1,8.591,9.4l-6.724.611,5.081,4.457a1.308,1.308,0,0,1,.415,1.279l-1.5,6.6,5.795-3.465a1.314,1.314,0,0,1,.672-.186ZM8.259,8a0,0,0,0,1,0,0Zm8.149,0V8S16.408,8,16.407,8Zm0,0" transform="translate(-0.001 -0.492)" fill="#ed1c24"/>
</svg>
